<svg xmlns="http://www.w3.org/2000/svg" xmlns:xlink="http://www.w3.org/1999/xlink" width="670" height="300" version="1.1" viewBox="0 0 670 300" style="background:#fff"><title>Artboard</title><desc>Created with Sketch.</desc><defs><rect id="path-1" width="94" height="32" x="469" y="12"/><mask id="mask-2" width="94" height="32" x="0" y="0" fill="#fff" maskContentUnits="userSpaceOnUse" maskUnits="objectBoundingBox"><use xlink:href="#path-1"/></mask><rect id="path-3" width="32" height="120" x="58" y="116" rx="2"/><mask id="mask-4" width="32" height="120" x="0" y="0" fill="#fff" maskContentUnits="userSpaceOnUse" maskUnits="objectBoundingBox"><use xlink:href="#path-3"/></mask><rect id="path-5" width="32" height="120" x="106" y="116" rx="2"/><mask id="mask-6" width="32" height="120" x="0" y="0" fill="#fff" maskContentUnits="userSpaceOnUse" maskUnits="objectBoundingBox"><use xlink:href="#path-5"/></mask><rect id="path-7" width="32" height="120" x="394" y="116" rx="2"/><mask id="mask-8" width="32" height="120" x="0" y="0" fill="#fff" maskContentUnits="userSpaceOnUse" maskUnits="objectBoundingBox"><use xlink:href="#path-7"/></mask><rect id="path-9" width="32" height="120" x="490" y="116" rx="2"/><mask id="mask-10" width="32" height="120" x="0" y="0" fill="#fff" maskContentUnits="userSpaceOnUse" maskUnits="objectBoundingBox"><use xlink:href="#path-9"/></mask><rect id="path-11" width="32" height="120" x="538" y="116" rx="2"/><mask id="mask-12" width="32" height="120" x="0" y="0" fill="#fff" maskContentUnits="userSpaceOnUse" maskUnits="objectBoundingBox"><use xlink:href="#path-11"/></mask><rect id="path-13" width="32" height="58" x="154" y="116" rx="2"/><mask id="mask-14" width="32" height="58" x="0" y="0" fill="#fff" maskContentUnits="userSpaceOnUse" maskUnits="objectBoundingBox"><use xlink:href="#path-13"/></mask><rect id="path-15" width="32" height="26" x="0" y="0" rx="2"/><mask id="mask-16" width="32" height="26" x="0" y="0" fill="#fff" maskContentUnits="userSpaceOnUse" maskUnits="objectBoundingBox"><use xlink:href="#path-15"/></mask><rect id="path-17" width="32" height="26" x="0" y="32" rx="2"/><mask id="mask-18" width="32" height="26" x="0" y="0" fill="#fff" maskContentUnits="userSpaceOnUse" maskUnits="objectBoundingBox"><use xlink:href="#path-17"/></mask><rect id="path-19" width="32" height="26" x="0" y="63" rx="2"/><mask id="mask-20" width="32" height="26" x="0" y="0" fill="#fff" maskContentUnits="userSpaceOnUse" maskUnits="objectBoundingBox"><use xlink:href="#path-19"/></mask><rect id="path-21" width="32" height="26" x="0" y="94" rx="2"/><mask id="mask-22" width="32" height="26" x="0" y="0" fill="#fff" maskContentUnits="userSpaceOnUse" maskUnits="objectBoundingBox"><use xlink:href="#path-21"/></mask><rect id="path-23" width="32" height="26" x="0" y="0" rx="2"/><mask id="mask-24" width="32" height="26" x="0" y="0" fill="#fff" maskContentUnits="userSpaceOnUse" maskUnits="objectBoundingBox"><use xlink:href="#path-23"/></mask><rect id="path-25" width="32" height="26" x="0" y="32" rx="2"/><mask id="mask-26" width="32" height="26" x="0" y="0" fill="#fff" maskContentUnits="userSpaceOnUse" maskUnits="objectBoundingBox"><use xlink:href="#path-25"/></mask><rect id="path-27" width="32" height="26" x="0" y="63" rx="2"/><mask id="mask-28" width="32" height="26" x="0" y="0" fill="#fff" maskContentUnits="userSpaceOnUse" maskUnits="objectBoundingBox"><use xlink:href="#path-27"/></mask><rect id="path-29" width="32" height="26" x="0" y="94" rx="2"/><mask id="mask-30" width="32" height="26" x="0" y="0" fill="#fff" maskContentUnits="userSpaceOnUse" maskUnits="objectBoundingBox"><use xlink:href="#path-29"/></mask><rect id="path-31" width="32" height="26" x="0" y="0" rx="2"/><mask id="mask-32" width="32" height="26" x="0" y="0" fill="#fff" maskContentUnits="userSpaceOnUse" maskUnits="objectBoundingBox"><use xlink:href="#path-31"/></mask><rect id="path-33" width="32" height="26" x="0" y="32" rx="2"/><mask id="mask-34" width="32" height="26" x="0" y="0" fill="#fff" maskContentUnits="userSpaceOnUse" maskUnits="objectBoundingBox"><use xlink:href="#path-33"/></mask><rect id="path-35" width="32" height="26" x="0" y="63" rx="2"/><mask id="mask-36" width="32" height="26" x="0" y="0" fill="#fff" maskContentUnits="userSpaceOnUse" maskUnits="objectBoundingBox"><use xlink:href="#path-35"/></mask><rect id="path-37" width="32" height="26" x="0" y="94" rx="2"/><mask id="mask-38" width="32" height="26" x="0" y="0" fill="#fff" maskContentUnits="userSpaceOnUse" maskUnits="objectBoundingBox"><use xlink:href="#path-37"/></mask><rect id="path-39" width="32" height="26" x="0" y="0" rx="2"/><mask id="mask-40" width="32" height="26" x="0" y="0" fill="#fff" maskContentUnits="userSpaceOnUse" maskUnits="objectBoundingBox"><use xlink:href="#path-39"/></mask><rect id="path-41" width="32" height="26" x="0" y="32" rx="2"/><mask id="mask-42" width="32" height="26" x="0" y="0" fill="#fff" maskContentUnits="userSpaceOnUse" maskUnits="objectBoundingBox"><use xlink:href="#path-41"/></mask><rect id="path-43" width="32" height="26" x="0" y="63" rx="2"/><mask id="mask-44" width="32" height="26" x="0" y="0" fill="#fff" maskContentUnits="userSpaceOnUse" maskUnits="objectBoundingBox"><use xlink:href="#path-43"/></mask><rect id="path-45" width="32" height="26" x="0" y="94" rx="2"/><mask id="mask-46" width="32" height="26" x="0" y="0" fill="#fff" maskContentUnits="userSpaceOnUse" maskUnits="objectBoundingBox"><use xlink:href="#path-45"/></mask><rect id="path-47" width="32" height="26" x="0" y="0" rx="2"/><mask id="mask-48" width="32" height="26" x="0" y="0" fill="#fff" maskContentUnits="userSpaceOnUse" maskUnits="objectBoundingBox"><use xlink:href="#path-47"/></mask><rect id="path-49" width="32" height="26" x="0" y="32" rx="2"/><mask id="mask-50" width="32" height="26" x="0" y="0" fill="#fff" maskContentUnits="userSpaceOnUse" maskUnits="objectBoundingBox"><use xlink:href="#path-49"/></mask><rect id="path-51" width="32" height="26" x="0" y="63" rx="2"/><mask id="mask-52" width="32" height="26" x="0" y="0" fill="#fff" maskContentUnits="userSpaceOnUse" maskUnits="objectBoundingBox"><use xlink:href="#path-51"/></mask><rect id="path-53" width="32" height="26" x="0" y="94" rx="2"/><mask id="mask-54" width="32" height="26" x="0" y="0" fill="#fff" maskContentUnits="userSpaceOnUse" maskUnits="objectBoundingBox"><use xlink:href="#path-53"/></mask><rect id="path-55" width="32" height="26" x="0" y="0" rx="2"/><mask id="mask-56" width="32" height="26" x="0" y="0" fill="#fff" maskContentUnits="userSpaceOnUse" maskUnits="objectBoundingBox"><use xlink:href="#path-55"/></mask><rect id="path-57" width="32" height="26" x="0" y="32" rx="2"/><mask id="mask-58" width="32" height="26" x="0" y="0" fill="#fff" maskContentUnits="userSpaceOnUse" maskUnits="objectBoundingBox"><use xlink:href="#path-57"/></mask><rect id="path-59" width="32" height="26" x="0" y="63" rx="2"/><mask id="mask-60" width="32" height="26" x="0" y="0" fill="#fff" maskContentUnits="userSpaceOnUse" maskUnits="objectBoundingBox"><use xlink:href="#path-59"/></mask><rect id="path-61" width="32" height="26" x="0" y="94" rx="2"/><mask id="mask-62" width="32" height="26" x="0" y="0" fill="#fff" maskContentUnits="userSpaceOnUse" maskUnits="objectBoundingBox"><use xlink:href="#path-61"/></mask><rect id="path-63" width="32" height="58" x="154" y="178" rx="2"/><mask id="mask-64" width="32" height="58" x="0" y="0" fill="#fff" maskContentUnits="userSpaceOnUse" maskUnits="objectBoundingBox"><use xlink:href="#path-63"/></mask></defs><g id="Page-1" fill="none" fill-rule="evenodd" stroke="none" stroke-width="1"><g id="Artboard"><rect id="Rectangle-4" width="173" height="40" x="28" y="8" fill="#D9E7F7"/><rect id="Rectangle-4-Copy-3" width="165" height="40" x="-54.5" y="70.5" fill="#D9E7F7" transform="translate(28.000000, 90.500000) rotate(-90.000000) translate(-28.000000, -90.500000)"/><use id="Rectangle-4-Copy-4" stroke="silver" stroke-width="2" mask="url(#mask-2)" xlink:href="#path-1"/><rect id="Rectangle-2" width="631" height="200" x="8" y="48" fill="#D9E7F7"/><text id="Parse" fill="#000" font-family="KievitOT-Medium, Kievit OT" font-size="14" font-weight="400"><tspan x="59" y="105">Parse</tspan></text><text id="Plan" fill="#000" font-family="KievitOT-Medium, Kievit OT" font-size="14" font-weight="400"><tspan x="107" y="105">Plan</tspan></text><text id="Scan" fill="#000" font-family="KievitOT-Medium, Kievit OT" font-size="14" font-weight="400"><tspan x="159" y="105">Scan</tspan></text><text id="Fetch" fill="#000" font-family="KievitOT-Medium, Kievit OT" font-size="14" font-weight="400"><tspan x="203" y="106">Fetch</tspan></text><text id="Join" fill="#000" font-family="KievitOT-Medium, Kievit OT" font-size="14" font-weight="400"><tspan x="251" y="105">Join</tspan></text><text id="Sort" fill="#000" font-family="KievitOT-Medium, Kievit OT" font-size="14" font-weight="400"><tspan x="446" y="105">Sort</tspan></text><text id="Offset" fill="#000" font-family="KievitOT-Medium, Kievit OT" font-size="14" font-weight="400"><tspan x="490" y="105">Offset</tspan></text><text id="Limit" fill="#000" font-family="KievitOT-Medium, Kievit OT" font-size="14" font-weight="400"><tspan x="539" y="105">Limit</tspan></text><text id="Project" fill="#000" font-family="KievitOT-Medium, Kievit OT" font-size="14" font-weight="400"><tspan x="587" y="105">Project</tspan></text><text id="Filter" fill="#000" font-family="KievitOT-Medium, Kievit OT" font-size="14" font-weight="400"><tspan x="299" y="105">Filter</tspan></text><text id="Pre-Aggregate" fill="#000" font-family="KievitOT-Medium, Kievit OT" font-size="14" font-weight="400" transform="translate(386.922105, 81.111216) rotate(-30.000000) translate(-386.922105, -81.111216)"><tspan x="343.422" y="85.611">Pre-Aggregate</tspan></text><text id="Aggregate" fill="#000" font-family="KievitOT-Medium, Kievit OT" font-size="14" font-weight="400" transform="translate(423.529800, 86.111216) rotate(-30.000000) translate(-423.529800, -86.111216)"><tspan x="392.03" y="90.611">Aggregate</tspan></text><use id="Rectangle" fill="#FFF" stroke="#979797" stroke-width="2" mask="url(#mask-4)" xlink:href="#path-3"/><use id="Rectangle-Copy" fill="#FFF" stroke="#979797" stroke-width="2" mask="url(#mask-6)" xlink:href="#path-5"/><use id="Rectangle-Copy-8" fill="#FFF" stroke="#979797" stroke-width="2" mask="url(#mask-8)" xlink:href="#path-7"/><use id="Rectangle-Copy-9" fill="#FFF" stroke="#979797" stroke-width="2" mask="url(#mask-10)" xlink:href="#path-9"/><use id="Rectangle-Copy-10" fill="#FFF" stroke="#979797" stroke-width="2" mask="url(#mask-12)" xlink:href="#path-11"/><use id="Rectangle-Copy-2" fill="#FFF" stroke="#979797" stroke-width="2" mask="url(#mask-14)" xlink:href="#path-13"/><g id="Group" fill="#FFF" stroke="#979797" stroke-width="2" transform="translate(202.000000, 116.000000)"><use id="Rectangle-Copy-4" mask="url(#mask-16)" xlink:href="#path-15"/><use id="Rectangle-Copy-5" mask="url(#mask-18)" xlink:href="#path-17"/><use id="Rectangle-Copy-6" mask="url(#mask-20)" xlink:href="#path-19"/><use id="Rectangle-Copy-7" mask="url(#mask-22)" xlink:href="#path-21"/></g><g id="Group-Copy-2" fill="#FFF" stroke="#979797" stroke-width="2" transform="translate(298.000000, 116.000000)"><use id="Rectangle-Copy-4" mask="url(#mask-24)" xlink:href="#path-23"/><use id="Rectangle-Copy-5" mask="url(#mask-26)" xlink:href="#path-25"/><use id="Rectangle-Copy-6" mask="url(#mask-28)" xlink:href="#path-27"/><use id="Rectangle-Copy-7" mask="url(#mask-30)" xlink:href="#path-29"/></g><g id="Group-Copy" fill="#FFF" stroke="#979797" stroke-width="2" transform="translate(250.000000, 116.000000)"><use id="Rectangle-Copy-4" mask="url(#mask-32)" xlink:href="#path-31"/><use id="Rectangle-Copy-5" mask="url(#mask-34)" xlink:href="#path-33"/><use id="Rectangle-Copy-6" mask="url(#mask-36)" xlink:href="#path-35"/><use id="Rectangle-Copy-7" mask="url(#mask-38)" xlink:href="#path-37"/></g><g id="Group-Copy-3" fill="#FFF" stroke="#979797" stroke-width="2" transform="translate(346.000000, 116.000000)"><use id="Rectangle-Copy-4" mask="url(#mask-40)" xlink:href="#path-39"/><use id="Rectangle-Copy-5" mask="url(#mask-42)" xlink:href="#path-41"/><use id="Rectangle-Copy-6" mask="url(#mask-44)" xlink:href="#path-43"/><use id="Rectangle-Copy-7" mask="url(#mask-46)" xlink:href="#path-45"/></g><g id="Group-Copy-4" fill="#FFF" stroke="#979797" stroke-width="2" transform="translate(442.000000, 116.000000)"><use id="Rectangle-Copy-4" mask="url(#mask-48)" xlink:href="#path-47"/><use id="Rectangle-Copy-5" mask="url(#mask-50)" xlink:href="#path-49"/><use id="Rectangle-Copy-6" mask="url(#mask-52)" xlink:href="#path-51"/><use id="Rectangle-Copy-7" mask="url(#mask-54)" xlink:href="#path-53"/></g><g id="Group-Copy-5" fill="#FFF" stroke="#979797" stroke-width="2" transform="translate(586.000000, 116.000000)"><use id="Rectangle-Copy-4" mask="url(#mask-56)" xlink:href="#path-55"/><use id="Rectangle-Copy-5" mask="url(#mask-58)" xlink:href="#path-57"/><use id="Rectangle-Copy-6" mask="url(#mask-60)" xlink:href="#path-59"/><use id="Rectangle-Copy-7" mask="url(#mask-62)" xlink:href="#path-61"/></g><use id="Rectangle-Copy-3" fill="#FFF" stroke="#979797" stroke-width="2" mask="url(#mask-64)" xlink:href="#path-63"/><path id="Line" stroke="#80C677" stroke-linecap="square" stroke-width="6" d="M444,28 L218.997778,28"/><text id="Client" fill="#333" font-family="KievitOT-Bold, Kievit OT" font-size="18" font-weight="bold"><tspan x="492" y="33">Client</tspan></text><text id="Query-Service" fill="#333" font-family="KievitOT-Bold, Kievit OT" font-size="20" font-weight="bold" transform="translate(122.000000, 27.500000) rotate(-360.000000) translate(-122.000000, -27.500000)"><tspan x="60" y="34">Query Service</tspan></text><rect id="Rectangle-4-Copy" width="124" height="32" x="66" y="260" fill="#D9E7F7"/><text id="Index-Service" fill="#333" font-family="KievitOT-Bold, Kievit OT" font-size="16" font-weight="bold" line-spacing="16"><tspan x="81" y="283">Index Service</tspan></text><rect id="Rectangle-4-Copy-2" width="124" height="32" x="198" y="260" fill="#D9E7F7"/><text id="Data-Service" fill="#333" font-family="KievitOT-Bold, Kievit OT" font-size="16" font-weight="bold" line-spacing="16"><tspan x="216" y="283">Data Service</tspan></text><path id="Line" stroke="#80C677" stroke-linecap="round" stroke-width="4" d="M169.4179,238 L160,257.882232"/><path id="Line-Copy" stroke="#80C677" stroke-linecap="round" stroke-width="4" d="M217,238 L221,259"/><path id="Line-Copy-2" stroke="#80C677" stroke-linecap="round" stroke-width="4" d="M265,238 L271,258"/><path id="Line-Copy-3" stroke="#80C677" stroke-linecap="square" stroke-width="6" d="M656,27 L603.96422,27"/><path id="Line-Copy-5" stroke="#80C677" stroke-linecap="square" stroke-width="6" d="M654,174 L645.985804,174"/><path id="Line-Copy-4" stroke="#80C677" stroke-linecap="square" stroke-width="6" d="M656,27 L656,174"/><polyline id="Rectangle-5" fill="#80C677" points="617.178 40.178 592.178 40.178 592.178 15.178 592.178 15.178" transform="translate(604.677670, 27.677670) rotate(-315.000000) translate(-604.677670, -27.677670)"/><path id="Line-Copy-3" stroke="silver" stroke-linecap="square" stroke-width="6" d="M47.8800144,175 L26,175" transform="translate(37.000000, 175.000000) scale(-1, -1) translate(-37.000000, -175.000000)"/><path id="Line-Copy-5" stroke="silver" stroke-linecap="square" stroke-width="6" d="M46.8800144,28 L25.9858044,28" transform="translate(36.000000, 28.000000) scale(-1, -1) translate(-36.000000, -28.000000)"/><path id="Line-Copy-4" stroke="silver" stroke-linecap="square" stroke-width="6" d="M25,28 L25,175" transform="translate(25.000000, 101.500000) scale(-1, -1) translate(-25.000000, -101.500000)"/><polyline id="Rectangle-5" fill="silver" points="52.822 186.822 27.822 186.822 27.822 161.822 27.822 161.822" transform="translate(40.322330, 174.322330) scale(-1, -1) rotate(-315.000000) translate(-40.322330, -174.322330)"/><polyline id="Rectangle-5-Copy" fill="#80C677" points="238.178 40.178 213.178 40.178 213.178 15.178 213.178 15.178" transform="translate(225.677670, 27.677670) rotate(-315.000000) translate(-225.677670, -27.677670)"/></g></g></svg>